<svg width="43" height="10" viewBox="0 0 43 10" fill="none" xmlns="http://www.w3.org/2000/svg">
<path d="M5.18359 9.50781C3.89453 9.50781 2.78776 9.05208 1.86328 8.14062C0.951823 7.21615 0.496094 6.10937 0.496094 4.82031C0.496094 3.54427 0.951823 2.45052 1.86328 1.53906C2.78776 0.627604 3.89453 0.171874 5.18359 0.171874C6.43359 0.171874 7.52734 0.627604 8.46484 1.53906C9.40234 2.45052 9.87109 3.54427 9.87109 4.82031C9.87109 5.67969 9.64974 6.46745 9.20703 7.18359C8.77734 7.88672 8.21094 8.45312 7.50781 8.88281C6.80469 9.29948 6.02995 9.50781 5.18359 9.50781ZM21.5654 9.50781C20.2764 9.50781 19.1696 9.05208 18.2451 8.14062C17.3337 7.21615 16.8779 6.10937 16.8779 4.82031C16.8779 3.54427 17.3337 2.45052 18.2451 1.53906C19.1696 0.627604 20.2764 0.171874 21.5654 0.171874C22.8154 0.171874 23.9092 0.627604 24.8467 1.53906C25.7842 2.45052 26.2529 3.54427 26.2529 4.82031C26.2529 5.67969 26.0316 6.46745 25.5889 7.18359C25.1592 7.88672 24.5928 8.45312 23.8896 8.88281C23.1865 9.29948 22.4118 9.50781 21.5654 9.50781ZM37.9473 9.50781C36.6582 9.50781 35.5514 9.05208 34.627 8.14062C33.7155 7.21615 33.2598 6.10937 33.2598 4.82031C33.2598 3.54427 33.7155 2.45052 34.627 1.53906C35.5514 0.627604 36.6582 0.171874 37.9473 0.171874C39.1973 0.171874 40.291 0.627604 41.2285 1.53906C42.166 2.45052 42.6348 3.54427 42.6348 4.82031C42.6348 5.67969 42.4134 6.46745 41.9707 7.18359C41.541 7.88672 40.9746 8.45312 40.2715 8.88281C39.5684 9.29948 38.7936 9.50781 37.9473 9.50781Z" fill="black"/>
</svg>
