<svg width="191" height="76" viewBox="0 0 191 76" fill="none" xmlns="http://www.w3.org/2000/svg">
<rect x="2.46511" y="35.6002" width="182" height="39" transform="rotate(-10.6172 2.46511 35.6002)" stroke="#AC1D1D" stroke-width="3"/>
<path d="M17.9275 59.6633L15.2476 45.3669L24.8809 43.561L25.3481 46.0531L18.7374 47.2924L19.3759 50.6989L25.491 49.5526L25.9582 52.0447L19.8431 53.191L20.483 56.6046L27.1216 55.3601L27.5888 57.8522L17.9275 59.6633ZM30.2019 42.5636L32.8819 56.86L29.9081 57.4175L27.2282 43.121L30.2019 42.5636ZM40.1479 55.7148C39.0635 55.918 38.0826 55.8634 37.2051 55.551C36.3314 55.2331 35.6028 54.7 35.0194 53.9519C34.4351 53.1992 34.04 52.2736 33.8341 51.1753C33.6265 50.0677 33.6591 49.0596 33.932 48.151C34.204 47.2377 34.69 46.477 35.3901 45.8688C36.094 45.2551 36.9882 44.8467 38.0725 44.6434C39.1568 44.4401 40.1359 44.4975 41.0096 44.8154C41.8871 45.1278 42.618 45.6604 43.2023 46.4132C43.7857 47.1613 44.1813 48.0892 44.3889 49.1968C44.5948 50.2951 44.5617 51.3009 44.2897 52.2141C44.0169 53.1228 43.5285 53.8839 42.8246 54.4976C42.1244 55.1058 41.2322 55.5115 40.1479 55.7148ZM39.73 53.4085C40.2233 53.316 40.609 53.0992 40.8871 52.7581C41.1643 52.4122 41.3409 51.9793 41.4168 51.4592C41.4974 50.9383 41.4792 50.366 41.3623 49.7424C41.2454 49.1188 41.0551 48.5788 40.7913 48.1225C40.5322 47.6652 40.2108 47.3256 39.8271 47.1037C39.4435 46.8818 39.005 46.817 38.5117 46.9095C38.0138 47.0028 37.6215 47.2233 37.335 47.5709C37.0532 47.9175 36.872 48.3514 36.7914 48.8723C36.7154 49.3923 36.7359 49.9642 36.8528 50.5878C36.9697 51.2114 37.1577 51.7518 37.4169 52.209C37.6806 52.6654 38.0067 53.0041 38.395 53.2252C38.787 53.4408 39.2321 53.5019 39.73 53.4085ZM49.1314 47.3973L50.2934 53.5961L47.3197 54.1536L45.3097 43.4313L48.1439 42.9L48.4985 44.7917L48.6241 44.7682C48.7446 44.1001 49.05 43.5322 49.5404 43.0645C50.03 42.5922 50.6726 42.2814 51.4684 42.1323C52.213 41.9927 52.8928 42.0339 53.5076 42.2558C54.1225 42.4778 54.6402 42.8624 55.0608 43.4099C55.4805 43.9526 55.7684 44.6405 55.9245 45.4735L57.2043 52.3007L54.2305 52.8581L53.0502 46.5615C52.9319 45.9045 52.6684 45.424 52.2597 45.12C51.8502 44.8114 51.3476 44.7129 50.7519 44.8246C50.3517 44.8996 50.0141 45.052 49.7393 45.2817C49.4691 45.5106 49.2788 45.8064 49.1686 46.1691C49.0621 46.5263 49.0497 46.9357 49.1314 47.3973ZM61.4736 36.7015L65.2013 36.0028L70.939 44.8702L71.1066 44.8387L73.2431 34.4953L76.9708 33.7965L79.6507 48.093L76.7188 48.6426L74.9745 39.3373L74.8558 39.3596L72.8873 49.2885L70.8908 49.6628L65.4533 41.086L65.3346 41.1082L67.0855 50.4484L64.1536 50.998L61.4736 36.7015ZM88.1054 41.7823L86.9512 35.6253L89.925 35.0679L91.935 45.7902L89.0799 46.3254L88.7148 44.3778L88.6031 44.3987C88.4789 45.0724 88.171 45.6528 87.6794 46.1399C87.1925 46.6262 86.5464 46.9448 85.7413 47.0958C85.0247 47.2301 84.3635 47.1854 83.758 46.9617C83.1524 46.738 82.6398 46.3548 82.2201 45.812C81.8051 45.2684 81.5167 44.5782 81.355 43.7414L80.0753 36.9143L83.049 36.3568L84.2294 42.6534C84.3527 43.2854 84.6163 43.7539 85.0203 44.0587C85.4243 44.3636 85.9078 44.4632 86.4709 44.3576C86.8293 44.2905 87.1491 44.1462 87.4304 43.9249C87.7108 43.6989 87.9158 43.4051 88.0456 43.0436C88.18 42.6812 88.1999 42.2608 88.1054 41.7823ZM101.798 36.0072L99.1071 36.6851C99.0169 36.4611 98.8776 36.2704 98.6891 36.1131C98.4998 35.9511 98.269 35.8378 97.9968 35.7732C97.7283 35.7031 97.4219 35.7003 97.0775 35.7648C96.6168 35.8512 96.2465 36.0218 95.9667 36.2766C95.686 36.5267 95.5757 36.8123 95.6359 37.1334C95.6839 37.3894 95.8269 37.5866 96.0648 37.725C96.3027 37.8635 96.6807 37.9396 97.1987 37.9533L99.2126 37.9804C100.295 37.9991 101.137 38.1978 101.738 38.5765C102.339 38.9552 102.712 39.5308 102.856 40.3034C102.988 41.0061 102.897 41.6615 102.582 42.2697C102.272 42.877 101.786 43.3968 101.125 43.8289C100.468 44.2556 99.6745 44.5562 98.7437 44.7307C97.3243 44.9967 96.1381 44.9132 95.1849 44.4801C94.2356 44.0414 93.5928 43.3237 93.2566 42.3269L96.1527 41.625C96.3223 42.0413 96.5983 42.3316 96.9808 42.4959C97.3624 42.6556 97.8185 42.6857 98.349 42.5863C98.8702 42.4886 99.2703 42.31 99.5492 42.0506C99.832 41.7856 99.9456 41.4921 99.89 41.1701C99.8348 40.9011 99.6793 40.7014 99.4236 40.5711C99.1671 40.4361 98.7974 40.3657 98.3146 40.3599L96.3884 40.338C95.302 40.3249 94.4545 40.108 93.8457 39.6874C93.2416 39.2659 92.8646 38.6549 92.7145 37.8545C92.5854 37.1657 92.6603 36.5375 92.9393 35.9697C93.2229 35.4011 93.6791 34.9181 94.308 34.5209C94.9415 34.1227 95.7166 33.8377 96.6334 33.6658C97.9877 33.412 99.1071 33.4984 99.9915 33.9251C100.881 34.351 101.483 35.045 101.798 36.0072ZM107.468 39.6846L106.806 36.1161L107.239 36.035L109.911 31.3215L113.324 30.6816L109.72 36.9356L109.015 37.0678L107.468 39.6846ZM105.352 43.2752L102.672 28.9787L105.646 28.4213L108.326 42.7177L105.352 43.2752ZM112.053 42.0189L108.023 37.9403L109.611 35.4675L115.537 41.366L112.053 42.0189ZM123.863 39.8052L120.624 40.4123L122.879 25.1907L126.774 24.4606L134.383 37.8332L131.144 38.4403L125.495 28.0821L125.383 28.1031L123.863 39.8052ZM122.607 34.2237L130.258 32.7895L130.7 35.1489L123.049 36.5831L122.607 34.2237ZM139.069 25.8556L139.488 28.0894L133.031 29.2998L132.612 27.066L139.069 25.8556ZM133.596 24.2223L136.57 23.6649L138.444 33.6612C138.495 33.9358 138.577 34.142 138.69 34.2799C138.802 34.4131 138.938 34.496 139.098 34.5286C139.263 34.5603 139.445 34.5574 139.645 34.5199C139.785 34.4937 139.922 34.4559 140.058 34.4065C140.192 34.3524 140.295 34.3114 140.367 34.2834L141.25 36.4086C141.109 36.4831 140.91 36.5759 140.651 36.687C140.394 36.8027 140.073 36.9038 139.689 36.9902C138.978 37.1524 138.332 37.1748 137.751 37.0573C137.175 36.9389 136.695 36.6772 136.31 36.2723C135.926 35.8674 135.67 35.3132 135.543 34.6096L133.596 24.2223ZM147.827 35.5298C146.724 35.7366 145.732 35.6911 144.853 35.3936C143.977 35.0904 143.248 34.5672 142.665 33.8237C142.082 33.0756 141.684 32.1361 141.472 31.0052C141.266 29.9023 141.298 28.8941 141.57 27.9809C141.842 27.0676 142.323 26.3054 143.013 25.6943C143.708 25.0824 144.581 24.6778 145.633 24.4807C146.34 24.3481 147.02 24.3387 147.672 24.4524C148.328 24.5606 148.927 24.7977 149.468 25.1636C150.013 25.5287 150.478 26.0293 150.862 26.6654C151.245 27.2969 151.522 28.0687 151.693 28.9808L151.846 29.7976L142.792 31.4948L142.447 29.6519L148.702 28.4794C148.621 28.0513 148.457 27.6894 148.209 27.3939C147.961 27.0984 147.654 26.8885 147.289 26.7643C146.928 26.6346 146.53 26.6103 146.098 26.6914C145.646 26.776 145.266 26.9557 144.956 27.2306C144.65 27.4999 144.432 27.8274 144.302 28.2131C144.171 28.5941 144.143 28.9968 144.218 29.4212L144.546 31.1733C144.645 31.7038 144.829 32.1439 145.097 32.4936C145.369 32.8423 145.707 33.0874 146.109 33.2287C146.511 33.3701 146.961 33.3941 147.459 33.3008C147.79 33.2389 148.084 33.1356 148.341 32.9911C148.598 32.8465 148.807 32.6628 148.967 32.4401C149.128 32.2173 149.234 31.9613 149.286 31.6722L152.07 31.3381C152.054 32.0251 151.876 32.6559 151.536 33.2303C151.2 33.7992 150.717 34.2846 150.089 34.6866C149.465 35.083 148.711 35.3641 147.827 35.5298ZM159.598 18.3077L162.278 32.6041L159.255 33.1707L156.575 18.8743L159.598 18.3077ZM168.402 20.357L168.821 22.5908L162.363 23.8012L161.945 21.5674L168.402 20.357ZM162.929 18.7237L165.903 18.1663L167.777 28.1626C167.828 28.4372 167.91 28.6434 168.023 28.7813C168.134 28.9145 168.27 28.9974 168.431 29.03C168.596 29.0617 168.778 29.0588 168.978 29.0213C169.118 28.9951 169.255 28.9573 169.391 28.9079C169.525 28.8538 169.628 28.8128 169.7 28.7849L170.582 30.9101C170.442 30.9845 170.243 31.0773 169.984 31.1884C169.727 31.3041 169.406 31.4052 169.022 31.4916C168.311 31.6538 167.665 31.6762 167.084 31.5587C166.508 31.4403 166.027 31.1786 165.643 30.7737C165.259 30.3688 165.003 29.8146 164.876 29.111L162.929 18.7237ZM174.121 30.5719C173.66 30.6582 173.234 30.5695 172.843 30.3057C172.455 30.0363 172.218 29.6713 172.132 29.2106C172.046 28.7545 172.136 28.333 172.401 27.9462C172.67 27.5585 173.035 27.3215 173.496 27.2351C173.942 27.1514 174.364 27.241 174.76 27.5039C175.156 27.7669 175.397 28.1264 175.482 28.5824C175.54 28.8896 175.514 29.186 175.403 29.4716C175.297 29.7517 175.132 29.9921 174.91 30.1928C174.687 30.3888 174.424 30.5152 174.121 30.5719Z" fill="#AC1D1D"/>
</svg>
