<svg width="45" height="39" viewBox="0 0 45 39" fill="none" xmlns="http://www.w3.org/2000/svg">
<path d="M22.5682 38.5682L4.31534 20.3153C2.85938 18.8594 1.88873 17.1667 1.40341 15.2372C0.929924 13.3078 0.935843 11.3902 1.42116 9.48438C1.90649 7.56676 2.87121 5.89773 4.31534 4.47727C5.79498 3.02131 7.48177 2.05658 9.37571 1.5831C11.2815 1.09777 13.1813 1.09777 15.0753 1.5831C16.9811 2.06842 18.6738 3.03314 20.1534 4.47727L22.5682 6.82102L24.983 4.47727C26.4744 3.03314 28.1671 2.06842 30.0611 1.5831C31.955 1.09777 33.849 1.09777 35.7429 1.5831C37.6487 2.05658 39.3414 3.02131 40.821 4.47727C42.2652 5.89773 43.2299 7.56676 43.7152 9.48438C44.2005 11.3902 44.2005 13.3078 43.7152 15.2372C43.2417 17.1667 42.277 18.8594 40.821 20.3153L22.5682 38.5682Z" fill="black"/>
</svg>
